<svg width="12721" height="10925" viewBox="0 0 12721 10925" fill="none" xmlns="http://www.w3.org/2000/svg">
<g clip-path="url(#clip0_381_298)">
<rect width="12721" height="10925" fill="white"/>
<rect y="-1" width="12802" height="10925" fill="#130022"/>
<path fill-rule="evenodd" clip-rule="evenodd" d="M6380.69 3836C7262.13 3836 7909.3 4327.36 7909.3 4988.89C7909.3 5337.86 7729.21 5649.89 7429.64 5866.85C7407.34 5868.49 7383.55 5870.81 7358.94 5873.46C7288.21 5881.07 7210.58 5891.44 7131.07 5899.31C7052.24 5907.11 6975.33 5912.01 6910.36 5908.59C6843.9 5905.1 6796.26 5893.08 6770.5 5872.46C6667.85 5790.25 6603.26 5676.34 6547.05 5578.25C6519.54 5530.23 6493.2 5484.56 6465.4 5451.15C6437.7 5417.87 6403.7 5390.82 6359.63 5390.82C6300.35 5390.82 6256.57 5414.04 6221.9 5450.58C6188.56 5485.7 6163.53 5533.31 6139.54 5582C6090.32 5681.92 6041.74 5793.43 5934.77 5871.7C5899.02 5897.87 5843.61 5913.04 5774.32 5919.16C5705.75 5925.21 5627.36 5922.12 5548.83 5914.89C5485.08 5909.02 5421.91 5900.49 5364.56 5892.18C5011.83 5664.19 4787.5 5322.85 4787.5 4951.46C4787.5 4289.93 5499.25 3836 6380.69 3836ZM7052.12 4544.4C6855.72 4544.4 6696.51 4706.96 6696.51 4907.48C6696.51 5108.01 6855.72 5270.57 7052.12 5270.57C7248.51 5270.57 7407.72 5108.01 7407.72 4907.48C7407.72 4706.96 7248.51 4544.4 7052.12 4544.4ZM5674.63 4539.72C5478.24 4539.72 5319.03 4702.28 5319.03 4902.81C5319.03 5103.33 5478.24 5265.89 5674.63 5265.89C5871.02 5265.89 6030.23 5103.33 6030.23 4902.81C6030.23 4702.28 5871.02 4539.72 5674.63 4539.72Z" fill="#662D91"/>
<path d="M2720.15 5997.5V6156.21H2170.66V6446.67H2652.77V6597.9H2170.66V7063.55H1982V5997.5H2720.15Z" fill="white"/>
<path d="M2839.59 6529.02C2857.56 6355.34 2969.86 6267 3177.98 6267C3273.8 6267 3351.66 6286.47 3408.55 6323.9C3465.45 6362.83 3495.4 6421.22 3495.4 6500.58V6892.86C3495.4 6915.32 3496.89 6930.29 3502.88 6937.78C3508.87 6946.76 3519.35 6949.76 3535.82 6949.76C3547.8 6949.76 3559.78 6949.76 3574.75 6946.76V7066.54C3529.83 7078.52 3493.9 7083.01 3463.95 7083.01C3390.59 7083.01 3348.66 7053.07 3338.18 6990.18C3272.3 7053.07 3182.47 7083.01 3067.18 7083.01C2986.33 7083.01 2923.44 7063.55 2877.03 7021.62C2829.11 6979.7 2806.65 6924.3 2806.65 6852.43C2806.65 6831.47 2808.15 6810.51 2814.14 6791.05C2818.63 6773.08 2824.62 6756.61 2830.61 6741.64C2836.6 6728.16 2847.08 6714.68 2862.05 6702.71C2877.03 6690.73 2889 6681.74 2897.99 6672.76C2906.97 6665.28 2923.44 6657.79 2944.4 6650.3C2965.36 6644.31 2981.83 6638.32 2992.31 6635.33C3002.8 6632.34 3020.76 6627.84 3047.71 6623.35C3073.17 6620.36 3089.64 6617.36 3098.62 6615.87C3107.6 6614.37 3125.57 6611.37 3152.52 6608.38C3212.41 6600.89 3254.34 6594.9 3276.79 6588.91C3297.76 6582.93 3312.73 6575.44 3321.71 6563.46C3327.7 6555.97 3332.19 6538.01 3332.19 6508.06C3332.19 6430.2 3278.29 6391.28 3173.48 6391.28C3116.59 6391.28 3076.16 6401.76 3050.71 6422.72C3023.76 6443.68 3007.29 6479.61 3001.3 6529.02H2839.59ZM3330.7 6675.76C3317.22 6683.24 3302.25 6689.23 3285.78 6695.22C3267.81 6701.21 3254.34 6704.2 3243.86 6705.7C3233.37 6707.2 3216.9 6708.7 3194.45 6711.69C3171.99 6714.68 3157.01 6717.68 3151.02 6717.68C3130.06 6720.67 3113.59 6723.67 3101.61 6726.66C3089.64 6729.66 3074.66 6732.65 3056.7 6738.64C3038.73 6744.63 3025.25 6752.12 3016.27 6761.1C3007.29 6770.08 2998.3 6780.56 2992.31 6795.54C2984.83 6810.51 2981.83 6826.98 2981.83 6846.44C2981.83 6883.88 2993.81 6912.32 3017.77 6931.79C3041.72 6952.75 3076.16 6961.73 3121.08 6961.73C3195.94 6961.73 3254.34 6942.27 3296.26 6900.35C3318.72 6877.89 3330.7 6832.97 3330.7 6767.09V6675.76Z" fill="white"/>
<path d="M4379.78 6771.58C4367.8 6867.41 4328.87 6942.27 4265.98 6999.17C4201.6 7056.06 4120.75 7083.01 4024.92 7083.01C3908.14 7083.01 3816.8 7047.08 3747.93 6973.71C3679.06 6900.35 3644.62 6804.52 3644.62 6684.74C3644.62 6557.47 3679.06 6455.66 3747.93 6380.79C3816.8 6305.93 3911.13 6267 4029.42 6267C4128.24 6267 4207.59 6292.46 4267.48 6341.87C4327.37 6392.77 4363.31 6461.65 4373.79 6549.99H4204.6C4194.12 6502.07 4174.65 6464.64 4144.71 6437.69C4114.76 6412.24 4075.83 6398.76 4030.91 6398.76C3965.03 6398.76 3912.63 6424.22 3875.2 6473.63C3836.27 6523.03 3818.3 6590.41 3818.3 6675.76C3818.3 6762.6 3836.27 6828.48 3872.2 6876.39C3908.14 6924.3 3959.04 6948.26 4024.92 6948.26C4075.83 6948.26 4116.26 6933.29 4149.2 6903.34C4182.14 6873.39 4203.1 6828.48 4212.08 6771.58H4379.78Z" fill="white"/>
<path d="M5202.77 6822.49C5183.3 6906.33 5141.38 6972.21 5078.5 7018.63C5015.61 7066.54 4939.25 7089 4852.41 7089C4735.62 7089 4642.79 7051.57 4573.92 6976.71C4505.04 6901.84 4472.1 6804.52 4472.1 6686.24C4472.1 6566.46 4506.54 6466.14 4576.91 6386.78C4647.28 6308.93 4737.12 6268.5 4846.42 6268.5C4958.71 6268.5 5048.55 6307.43 5114.43 6385.29C5180.31 6463.14 5213.25 6567.95 5213.25 6701.21V6719.18H4642.79C4644.29 6797.03 4663.75 6858.42 4701.19 6900.35C4737.12 6942.27 4789.52 6963.23 4855.4 6963.23C4901.82 6963.23 4939.25 6952.75 4969.2 6930.29C4999.14 6907.83 5021.6 6871.9 5039.57 6822.49H5202.77ZM5042.56 6605.38C5036.57 6541 5017.11 6490.1 4981.17 6452.66C4945.24 6415.23 4900.32 6395.77 4844.92 6395.77C4788.03 6395.77 4743.11 6413.73 4708.67 6449.67C4674.23 6485.6 4653.27 6538.01 4645.79 6605.38H5042.56Z" fill="white"/>
<path d="M5518.19 5997.5V7063.55H5349V5997.5H5518.19Z" fill="white"/>
<path d="M6395.9 6822.49C6376.44 6906.33 6334.51 6972.21 6271.63 7018.63C6208.74 7066.54 6132.38 7089 6045.54 7089C5928.76 7089 5835.92 7051.57 5767.05 6976.71C5698.18 6901.84 5665.24 6804.52 5665.24 6686.24C5665.24 6566.46 5699.67 6466.14 5770.05 6386.78C5840.42 6308.93 5930.25 6268.5 6039.55 6268.5C6151.85 6268.5 6241.68 6307.43 6307.56 6385.29C6373.44 6463.14 6406.38 6567.95 6406.38 6701.21V6719.18H5835.92C5837.42 6797.03 5856.89 6858.42 5894.32 6900.35C5930.25 6942.27 5982.66 6963.23 6048.54 6963.23C6094.95 6963.23 6132.38 6952.75 6162.33 6930.29C6192.27 6907.83 6214.73 6871.9 6232.7 6822.49H6395.9ZM6235.69 6605.38C6229.71 6541 6210.24 6490.1 6174.31 6452.66C6138.37 6415.23 6093.45 6395.77 6038.06 6395.77C5981.16 6395.77 5936.24 6413.73 5901.8 6449.67C5867.37 6485.6 5846.41 6538.01 5838.92 6605.38H6235.69Z" fill="white"/>
<path d="M7148.52 6515.55H6985.32C6974.84 6434.7 6919.44 6392.77 6817.63 6392.77C6772.71 6392.77 6739.77 6401.76 6715.81 6416.73C6691.86 6433.2 6679.88 6455.66 6679.88 6482.61C6679.88 6491.59 6679.88 6500.58 6681.38 6506.57C6682.87 6514.05 6685.87 6520.04 6690.36 6526.03C6694.85 6532.02 6699.34 6536.51 6702.34 6539.5C6705.33 6544 6712.82 6548.49 6721.8 6551.48C6730.79 6555.97 6736.78 6558.97 6742.76 6561.96C6748.75 6564.96 6757.74 6567.95 6771.21 6570.95C6783.19 6573.94 6793.67 6576.94 6801.16 6578.43C6808.64 6581.43 6820.62 6584.42 6838.59 6587.42C6855.06 6590.41 6868.53 6593.41 6877.52 6594.9C6916.45 6603.89 6943.4 6611.37 6961.37 6615.87C6979.33 6620.36 7004.79 6629.34 7037.73 6642.82C7070.67 6656.29 7096.12 6669.77 7112.59 6684.74C7127.56 6699.71 7142.53 6719.18 7156.01 6744.63C7169.48 6770.08 7176.97 6798.53 7176.97 6831.47C7176.97 6909.33 7145.53 6972.21 7085.64 7017.13C7024.25 7063.55 6941.9 7086.01 6840.09 7086.01C6729.29 7086.01 6645.44 7063.55 6587.05 7017.13C6527.16 6972.21 6495.72 6904.84 6492.72 6816.5H6655.92C6664.91 6913.82 6726.29 6961.73 6843.08 6961.73C6892.49 6961.73 6932.92 6952.75 6962.86 6931.79C6992.81 6910.83 7009.28 6883.88 7009.28 6849.44C7009.28 6832.97 7004.79 6818 6997.3 6806.02C6989.81 6794.04 6977.84 6785.06 6961.37 6776.07C6943.4 6767.09 6926.93 6761.1 6911.96 6756.61C6896.98 6752.12 6876.02 6746.13 6850.57 6740.14L6841.58 6738.64C6838.59 6738.64 6837.09 6737.14 6834.1 6737.14C6831.1 6737.14 6828.11 6735.65 6825.11 6734.15C6714.32 6707.2 6645.44 6686.24 6615.5 6671.26C6543.63 6638.32 6509.19 6581.43 6509.19 6502.07C6509.19 6430.2 6536.14 6373.31 6593.04 6331.39C6648.44 6289.46 6726.29 6268.5 6825.11 6268.5C6919.44 6268.5 6997.3 6289.46 7057.19 6329.89C7117.08 6371.81 7148.52 6433.2 7148.52 6515.55Z" fill="white"/>
<path d="M7924.94 6515.55H7761.74C7751.25 6434.7 7695.86 6392.77 7594.04 6392.77C7549.12 6392.77 7516.18 6401.76 7492.23 6416.73C7468.27 6433.2 7456.29 6455.66 7456.29 6482.61C7456.29 6491.59 7456.29 6500.58 7457.79 6506.57C7459.29 6514.05 7462.28 6520.04 7466.77 6526.03C7471.27 6532.02 7475.76 6536.51 7478.75 6539.5C7481.75 6544 7489.23 6548.49 7498.22 6551.48C7507.2 6555.97 7513.19 6558.97 7519.18 6561.96C7525.17 6564.96 7534.15 6567.95 7547.63 6570.95C7559.6 6573.94 7570.09 6576.94 7577.57 6578.43C7585.06 6581.43 7597.04 6584.42 7615 6587.42C7631.47 6590.41 7644.95 6593.41 7653.93 6594.9C7692.86 6603.89 7719.81 6611.37 7737.78 6615.87C7755.75 6620.36 7781.2 6629.34 7814.14 6642.82C7847.08 6656.29 7872.53 6669.77 7889 6684.74C7903.98 6699.71 7918.95 6719.18 7932.42 6744.63C7945.9 6770.08 7953.39 6798.53 7953.39 6831.47C7953.39 6909.33 7921.94 6972.21 7862.05 7017.13C7800.66 7063.55 7718.31 7086.01 7616.5 7086.01C7505.7 7086.01 7421.86 7063.55 7363.46 7017.13C7303.57 6972.21 7272.13 6904.84 7269.14 6816.5H7432.34C7441.32 6913.82 7502.71 6961.73 7619.49 6961.73C7668.9 6961.73 7709.33 6952.75 7739.28 6931.79C7769.22 6910.83 7785.69 6883.88 7785.69 6849.44C7785.69 6832.97 7781.2 6818 7773.71 6806.02C7766.23 6794.04 7754.25 6785.06 7737.78 6776.07C7719.81 6767.09 7703.34 6761.1 7688.37 6756.61C7673.4 6752.12 7652.43 6746.13 7626.98 6740.14L7618 6738.64C7615 6738.64 7613.51 6737.14 7610.51 6737.14C7607.52 6737.14 7604.52 6735.65 7601.53 6734.15C7490.73 6707.2 7421.86 6686.24 7391.91 6671.26C7320.04 6638.32 7285.61 6581.43 7285.61 6502.07C7285.61 6430.2 7312.56 6373.31 7369.45 6331.39C7424.85 6289.46 7502.71 6268.5 7601.53 6268.5C7695.86 6268.5 7773.71 6289.46 7833.6 6329.89C7893.49 6371.81 7924.94 6433.2 7924.94 6515.55Z" fill="white"/>
<path d="M9024.76 6657.79C9014.28 6789.55 8967.86 6894.36 8884.02 6972.21C8800.17 7050.07 8692.37 7089 8560.61 7089C8409.38 7089 8288.11 7038.09 8198.27 6936.28C8106.94 6834.47 8062.02 6699.71 8062.02 6530.52C8062.02 6428.71 8081.48 6337.37 8120.41 6253.53C8159.34 6169.68 8217.73 6102.3 8295.59 6051.4C8373.45 6000.49 8464.78 5973.54 8569.59 5973.54C8681.89 5973.54 8780.71 6004.98 8864.55 6067.87C8948.4 6130.75 8997.81 6220.59 9015.78 6337.37H8830.12C8816.64 6274.49 8786.69 6223.58 8740.28 6187.65C8692.37 6151.71 8635.47 6132.25 8566.6 6132.25C8494.73 6132.25 8434.84 6153.21 8385.43 6192.14C8336.02 6232.57 8301.58 6281.98 8280.62 6340.37C8259.66 6398.76 8250.67 6461.65 8250.67 6530.52C8250.67 6582.93 8256.66 6632.34 8268.64 6677.25C8280.62 6723.67 8298.59 6765.59 8322.54 6804.52C8346.5 6843.45 8377.94 6873.39 8419.87 6895.85C8461.79 6919.81 8509.7 6930.29 8565.1 6930.29C8723.81 6930.29 8813.65 6840.45 8837.6 6657.79H9024.76Z" fill="white"/>
<path d="M9527.36 6268.5C9644.15 6268.5 9738.48 6305.93 9808.85 6379.3C9877.72 6454.16 9913.66 6552.98 9913.66 6677.25C9913.66 6803.02 9877.72 6903.34 9808.85 6976.71C9739.97 7051.57 9645.65 7087.5 9527.36 7087.5C9406.08 7087.5 9310.26 7051.57 9239.89 6976.71C9168.02 6903.34 9133.58 6803.02 9133.58 6677.25C9133.58 6552.98 9168.02 6454.16 9239.89 6379.3C9311.76 6305.93 9407.58 6268.5 9527.36 6268.5ZM9524.37 6403.25C9455.49 6403.25 9403.09 6428.71 9364.16 6476.62C9325.23 6526.03 9305.77 6593.41 9305.77 6677.25C9305.77 6764.09 9325.23 6832.97 9364.16 6880.88C9403.09 6930.29 9456.99 6954.25 9525.86 6954.25C9591.74 6954.25 9644.15 6930.29 9683.08 6880.88C9722.01 6831.47 9741.47 6762.6 9741.47 6675.76C9741.47 6591.91 9722.01 6524.53 9683.08 6476.62C9644.15 6428.71 9591.74 6403.25 9524.37 6403.25Z" fill="white"/>
<path d="M10220.3 6290.96V6404.75C10281.6 6314.92 10367 6270 10476.3 6270C10563.1 6270 10629 6293.95 10672.4 6341.87C10715.9 6389.78 10738.3 6458.65 10738.3 6548.49V7063.55H10567.6V6614.37C10567.6 6584.42 10566.1 6558.97 10563.1 6538.01C10560.1 6517.05 10552.6 6496.08 10543.7 6475.12C10534.7 6454.16 10519.7 6439.19 10498.7 6428.71C10477.8 6418.23 10450.8 6412.24 10417.9 6412.24C10292.1 6412.24 10229.2 6491.59 10229.2 6647.31V7063.55H10058.6V6290.96H10220.3Z" fill="white"/>
</g>
<defs>
<clipPath id="clip0_381_298">
<rect width="12721" height="10925" fill="white"/>
</clipPath>
</defs>
</svg>
