<svg width="12721" height="10925" viewBox="0 0 12721 10925" fill="none" xmlns="http://www.w3.org/2000/svg">
<g clip-path="url(#clip0_4_31)">
<rect width="12721" height="10925" fill="white"/>
<rect y="-1" width="12802" height="10925" fill="#28A745"/>
<path d="M5897.83 5849.64H5871.05C5832.96 5849.64 5782.79 5863.34 5733.62 5882.05C5685.11 5900.51 5640.48 5922.7 5614.56 5937.29L5600.61 5945.14L5587.09 5936.58C5508.93 5887.09 5382.09 5857.66 5327.73 5849.33L5305 5845.85V5624.95L5601.42 5739.07L5897.83 5624.95V5849.64ZM5601.42 5796.47L5358.57 5702.97V5800.3C5419.44 5811.8 5525.19 5838.87 5602.06 5883.07C5630.44 5867.94 5670.99 5848.56 5714.58 5831.98C5756.09 5816.19 5802.37 5802.14 5844.26 5797.6V5702.97L5601.42 5796.47Z" fill="#F4C20D"/>
<path d="M5831.14 5765.14L5994.47 6136.84C5999.31 6147.86 6010.22 6154.98 6022.26 6154.98H6113.88C6136.44 6154.98 6151.11 6131.25 6141.04 6111.07L5680.03 5187.26C5674.9 5176.96 5664.38 5170.45 5652.87 5170.45L5537.39 5170.45C5525.76 5170.45 5515.15 5177.1 5510.08 5187.56L5062.05 6111.38C5052.27 6131.54 5066.95 6154.98 5089.36 6154.98H5178.54C5190.58 6154.98 5201.48 6147.86 5206.33 6136.84L5369.65 5765.14H5831.14ZM5572.61 5303.28C5583.24 5279.09 5617.56 5279.09 5628.19 5303.28L5831.14 5765.14H5369.65L5572.61 5303.28Z" fill="#F4C20D"/>
<path d="M11266.8 6457C11228.5 6457 11191.2 6450.44 11154.9 6437.33C11118.5 6425.22 11087.3 6407.06 11061 6382.84L11123.1 6273.87C11143.3 6293.04 11165.4 6307.67 11189.7 6317.76C11213.9 6327.85 11239.6 6332.9 11266.8 6332.9C11302.2 6332.9 11331.4 6323.82 11354.6 6305.66C11377.8 6287.5 11399.5 6255.21 11419.7 6208.8L11469.6 6098.31L11484.8 6080.15L11799.6 5352.18H11941.8L11552.9 6234.52C11529.7 6291.03 11503.4 6335.42 11474.2 6367.71C11445.9 6400 11414.7 6422.7 11380.4 6435.81C11346 6449.94 11308.2 6457 11266.8 6457ZM11457.5 6180.04L11091.3 5352.18H11242.6L11554.4 6066.53L11457.5 6180.04Z" fill="#F4C20D"/>
<path d="M10711.6 5344.61C10776.2 5344.61 10833.2 5357.22 10882.6 5382.45C10932.1 5407.67 10970.4 5446.01 10997.6 5497.47C11025.9 5548.93 11040 5614 11040 5692.7V6137.31C11040 6146.7 11032.4 6154.31 11023 6154.31H10911.7C10902.3 6154.31 10894.7 6146.7 10894.7 6137.31V5709.35C10894.7 5631.66 10876.6 5573.14 10840.3 5533.79C10803.9 5494.44 10753 5474.77 10687.4 5474.77C10639 5474.77 10596.6 5484.86 10560.3 5505.04C10524 5525.22 10495.7 5554.98 10475.5 5594.33C10456.4 5633.68 10446.8 5682.61 10446.8 5741.13V6137.31C10446.8 6146.7 10439.2 6154.31 10429.8 6154.31H10318.5C10309.1 6154.31 10301.5 6146.7 10301.5 6137.31V5709.35C10301.5 5631.66 10283.3 5573.14 10247 5533.79C10211.7 5494.44 10160.7 5474.77 10094.2 5474.77C10046.7 5474.77 10004.9 5484.86 9968.55 5505.04C9932.23 5525.22 9903.98 5554.98 9883.8 5594.33C9863.62 5633.68 9853.53 5682.61 9853.53 5741.13V6137.31C9853.53 6146.7 9845.92 6154.31 9836.53 6154.31H9725.25C9715.86 6154.31 9708.25 6146.7 9708.25 6137.31V5369.18C9708.25 5359.79 9715.86 5352.18 9725.25 5352.18H9830.48C9839.87 5352.18 9847.48 5359.79 9847.48 5369.18V5511.41C9847.48 5523.25 9831.2 5526.5 9826.64 5515.57C9825.46 5512.72 9825.53 5509.49 9826.92 5506.73C9852.18 5456.35 9890.3 5416.94 9941.31 5388.5C9993.77 5359.24 10054.8 5344.61 10124.4 5344.61C10201.1 5344.61 10267.2 5363.78 10322.7 5402.12C10370.3 5434.15 10403.8 5480.67 10423.2 5541.66C10427.3 5554.76 10414.2 5565.98 10401.5 5560.77L10388.1 5555.29C10379.5 5551.76 10375.3 5541.95 10379.2 5533.51C10404.2 5479.07 10444.3 5434.77 10499.7 5400.61C10560.3 5363.28 10630.9 5344.61 10711.6 5344.61Z" fill="#F4C20D"/>
<path d="M9199.29 6163.39C9113.54 6163.39 9037.87 6145.73 8972.29 6110.42C8907.72 6075.1 8857.27 6026.67 8820.95 5965.13C8785.64 5903.58 8767.98 5832.95 8767.98 5753.24C8767.98 5673.53 8785.13 5602.91 8819.44 5541.36C8854.75 5479.81 8902.67 5431.89 8963.21 5397.58C9024.75 5362.27 9093.86 5344.61 9170.54 5344.61C9248.23 5344.61 9316.83 5361.76 9376.36 5396.07C9435.88 5430.37 9482.3 5478.8 9515.59 5541.36C9549.89 5602.91 9567.04 5675.05 9567.04 5757.78C9567.04 5763.84 9566.54 5770.9 9565.53 5778.97C9565.53 5781.7 9565.47 5784.38 9565.36 5787C9564.98 5795.45 9557.73 5801.67 9549.27 5801.67H8898.48C8889.1 5801.67 8881.48 5794.06 8881.48 5784.67V5714.24C8881.48 5704.86 8889.1 5697.24 8898.48 5697.24H9442.71C9455.73 5697.24 9460.57 5714.34 9449.48 5721.17C9440.77 5726.52 9429.49 5720.12 9428.95 5709.91C9426.75 5667.94 9416.28 5629.91 9397.55 5595.84C9375.35 5555.48 9344.58 5524.21 9305.23 5502.01C9266.89 5478.8 9221.99 5467.2 9170.54 5467.2C9120.09 5467.2 9075.2 5478.8 9035.85 5502.01C8996.5 5524.21 8965.73 5555.99 8943.53 5597.36C8921.34 5637.72 8910.24 5684.13 8910.24 5736.59V5760.81C8910.24 5814.29 8922.35 5862.21 8946.56 5904.59C8971.78 5945.96 9006.59 5978.24 9050.98 6001.45C9095.37 6024.66 9146.32 6036.26 9203.83 6036.26C9251.25 6036.26 9294.13 6028.19 9332.47 6012.04C9365.96 5998.3 9395.79 5978.72 9421.97 5953.29C9429.32 5946.15 9441.27 5946.29 9447.93 5954.08L9506.13 6022.17C9511.58 6028.54 9511.6 6037.95 9505.89 6044.08C9471.29 6081.16 9429.12 6109.83 9379.39 6130.09C9325.91 6152.29 9265.88 6163.39 9199.29 6163.39Z" fill="#F4C20D"/>
<path d="M8202.53 6163.39C8124.84 6163.39 8055.22 6146.24 7993.68 6111.94C7933.15 6077.63 7885.22 6029.7 7849.91 5968.16C7814.6 5906.61 7796.94 5834.97 7796.94 5753.25C7796.94 5671.52 7814.6 5600.39 7849.91 5539.85C7885.22 5478.3 7933.15 5430.38 7993.68 5396.07C8055.22 5361.77 8124.84 5344.61 8202.53 5344.61C8270.12 5344.61 8331.16 5359.75 8385.65 5390.02C8440.13 5420.29 8483.51 5465.69 8515.8 5526.23C8549.09 5586.77 8565.74 5662.44 8565.74 5753.25C8565.74 5844.05 8549.59 5919.73 8517.31 5980.26C8486.03 6040.8 8443.15 6086.71 8388.67 6117.99C8334.19 6148.26 8272.14 6163.39 8202.53 6163.39ZM8214.63 6036.26C8265.08 6036.26 8310.48 6024.66 8350.84 6001.45C8392.2 5978.25 8424.49 5945.46 8447.69 5903.08C8471.91 5859.69 8484.02 5809.75 8484.02 5753.25C8484.02 5695.74 8471.91 5646.3 8447.69 5604.93C8424.49 5562.55 8392.2 5529.76 8350.84 5506.55C8310.48 5483.35 8265.08 5471.74 8214.63 5471.74C8163.18 5471.74 8117.27 5483.35 8076.92 5506.55C8036.56 5529.76 8004.27 5562.55 7980.06 5604.93C7955.85 5646.3 7943.74 5695.74 7943.74 5753.25C7943.74 5809.75 7955.85 5859.69 7980.06 5903.08C8004.27 5945.46 8036.56 5978.25 8076.92 6001.45C8117.27 6024.66 8163.18 6036.26 8214.63 6036.26ZM8500.56 6154.31C8493.93 6154.31 8488.56 6148.94 8488.56 6142.31V5937.89L8497.64 5751.73L8482.5 5565.58V5043.33C8482.5 5036.7 8487.87 5031.33 8494.5 5031.33H8615.79C8622.41 5031.33 8627.79 5036.7 8627.79 5043.33V6142.31C8627.79 6148.94 8622.41 6154.31 8615.79 6154.31H8500.56Z" fill="#F4C20D"/>
<path d="M7549.05 6154.31C7535.8 6154.31 7525.05 6143.56 7525.05 6130.31V5984.8L7517.48 5953.02V5663.95C7517.48 5602.4 7499.32 5554.98 7463 5521.68C7427.69 5487.38 7374.22 5470.23 7302.59 5470.23C7255.17 5470.23 7208.76 5478.3 7163.35 5494.44C7117.95 5509.58 7079.61 5530.26 7048.34 5556.49C7011.04 5587.78 6949.88 5478.05 6987.8 5447.52C7029.17 5414.23 7078.61 5389 7136.11 5371.85C7194.63 5353.69 7255.67 5344.61 7319.23 5344.61C7429.2 5344.61 7513.95 5371.35 7573.48 5424.82C7633.01 5478.3 7662.77 5560.02 7662.77 5670V6130.31C7662.77 6143.56 7652.02 6154.31 7638.77 6154.31H7549.05ZM7261.72 6163.39C7202.2 6163.39 7149.73 6153.3 7104.33 6133.12C7059.94 6112.94 7025.64 6085.19 7001.42 6049.88C6977.21 6013.56 6965.1 5972.69 6965.1 5927.29C6965.1 5883.9 6975.19 5844.55 6995.37 5809.24C7016.56 5773.93 7050.36 5745.68 7096.77 5724.49C7144.18 5703.3 7207.75 5692.7 7287.45 5692.7H7541.7V5797.13H7293.5C7220.86 5797.13 7171.93 5809.24 7146.71 5833.46C7121.48 5857.67 7108.87 5886.93 7108.87 5921.24C7108.87 5960.59 7124.51 5992.37 7155.79 6016.58C7187.06 6039.79 7230.45 6051.39 7285.94 6051.39C7340.42 6051.39 7387.84 6039.29 7428.2 6015.07C7469.56 5990.85 7499.32 5955.54 7517.48 5909.13L7546.24 6009.02C7527.07 6056.44 7493.27 6094.27 7444.84 6122.53C7396.41 6149.77 7335.37 6163.39 7261.72 6163.39Z" fill="#F4C20D"/>
<path d="M6572.7 6163.39C6490.98 6163.39 6417.83 6145.73 6353.26 6110.42C6289.7 6075.1 6239.76 6026.67 6203.44 5965.13C6167.12 5903.58 6148.96 5832.95 6148.96 5753.24C6148.96 5673.53 6167.12 5602.91 6203.44 5541.36C6239.76 5479.81 6289.7 5431.89 6353.26 5397.58C6417.83 5362.27 6490.98 5344.61 6572.7 5344.61C6645.34 5344.61 6709.92 5359.24 6766.41 5388.5C6816.34 5413.02 6856.38 5448.19 6886.53 5494.01C6894.35 5505.88 6890.3 5521.61 6878.35 5529.31L6811.46 5572.38C6799.06 5580.36 6782.67 5576.81 6773.4 5565.34C6750.31 5536.8 6723.27 5515.18 6692.26 5500.5C6654.93 5481.32 6614.57 5471.74 6571.19 5471.74C6518.73 5471.74 6471.81 5483.34 6430.45 5506.55C6389.08 5529.76 6356.29 5562.55 6332.08 5604.92C6307.86 5646.29 6295.75 5695.73 6295.75 5753.24C6295.75 5810.75 6307.86 5860.7 6332.08 5903.07C6356.29 5945.45 6389.08 5978.24 6430.45 6001.45C6471.81 6024.66 6518.73 6036.26 6571.19 6036.26C6614.57 6036.26 6654.93 6027.18 6692.26 6009.02C6723.35 5993.47 6750.46 5971.29 6773.59 5942.47C6782.75 5931.05 6798.99 5927.46 6811.38 5935.27L6877.84 5977.15C6890.02 5984.83 6894.14 6000.79 6886.13 6012.75C6856.02 6057.76 6816.12 6093.34 6766.41 6119.5C6709.92 6148.76 6645.34 6163.39 6572.7 6163.39Z" fill="#F4C20D"/>
<path d="M4650.24 5344.61C4714.82 5344.61 4771.82 5357.22 4821.26 5382.45C4870.69 5407.67 4909.03 5446.01 4936.27 5497.47C4964.52 5548.93 4978.65 5614 4978.65 5692.7V6137.31C4978.65 6146.7 4971.04 6154.31 4961.65 6154.31H4850.36C4840.97 6154.31 4833.36 6146.7 4833.36 6137.31V5709.35C4833.36 5631.66 4815.2 5573.14 4778.88 5533.79C4742.56 5494.44 4691.61 5474.77 4626.03 5474.77C4577.6 5474.77 4535.23 5484.86 4498.91 5505.04C4462.59 5525.22 4434.34 5554.98 4414.16 5594.33C4394.99 5633.68 4385.4 5682.61 4385.4 5741.13V6137.31C4385.4 6146.7 4377.79 6154.31 4368.4 6154.31H4257.12C4247.73 6154.31 4240.12 6146.7 4240.12 6137.31V5709.35C4240.12 5631.66 4221.96 5573.14 4185.64 5533.79C4150.33 5494.44 4099.37 5474.77 4032.79 5474.77C3985.37 5474.77 3943.5 5484.86 3907.18 5505.04C3870.85 5525.22 3842.61 5554.98 3822.43 5594.33C3802.25 5633.68 3792.16 5682.61 3792.16 5741.13V6137.31C3792.16 6146.7 3784.55 6154.31 3775.16 6154.31H3663.88C3654.49 6154.31 3646.88 6146.7 3646.88 6137.31V5369.18C3646.88 5359.79 3654.49 5352.18 3663.88 5352.18H3769.11C3778.49 5352.18 3786.11 5359.79 3786.11 5369.18V5511.41C3786.11 5523.25 3769.83 5526.5 3765.27 5515.57C3764.08 5512.72 3764.16 5509.49 3765.55 5506.73C3790.8 5456.35 3828.93 5416.94 3879.94 5388.5C3932.4 5359.24 3993.44 5344.61 4063.05 5344.61C4139.73 5344.61 4205.82 5363.78 4261.31 5402.12C4308.92 5434.15 4342.42 5480.67 4361.8 5541.66C4365.97 5554.76 4352.83 5565.98 4340.11 5560.77L4326.75 5555.29C4318.15 5551.76 4313.93 5541.95 4317.81 5533.51C4342.79 5479.07 4382.98 5434.77 4438.37 5400.61C4498.91 5363.28 4569.53 5344.61 4650.24 5344.61Z" fill="#F4C20D"/>
<path d="M3137.92 6163.39C3052.16 6163.39 2976.5 6145.73 2910.92 6110.42C2846.34 6075.1 2795.9 6026.67 2759.58 5965.13C2724.27 5903.58 2706.61 5832.95 2706.61 5753.24C2706.61 5673.53 2723.76 5602.91 2758.06 5541.36C2793.38 5479.81 2841.3 5431.89 2901.84 5397.58C2963.38 5362.27 3032.49 5344.61 3109.17 5344.61C3186.85 5344.61 3255.46 5361.76 3314.99 5396.07C3374.51 5430.37 3420.92 5478.8 3454.22 5541.36C3488.52 5602.91 3505.67 5675.05 3505.67 5757.78C3505.67 5763.84 3505.17 5770.9 3504.16 5778.97C3504.16 5781.7 3504.1 5784.38 3503.99 5787C3503.61 5795.45 3496.36 5801.67 3487.9 5801.67H2837.11C2827.72 5801.67 2820.11 5794.06 2820.11 5784.67V5714.24C2820.11 5704.86 2827.72 5697.24 2837.11 5697.24H3381.34C3394.36 5697.24 3399.2 5714.34 3388.11 5721.17C3379.4 5726.52 3368.12 5720.12 3367.58 5709.91C3365.38 5667.94 3354.91 5629.91 3336.17 5595.84C3313.98 5555.48 3283.21 5524.21 3243.86 5502.01C3205.52 5478.8 3160.62 5467.2 3109.17 5467.2C3058.72 5467.2 3013.83 5478.8 2974.48 5502.01C2935.13 5524.21 2904.36 5555.99 2882.16 5597.36C2859.97 5637.72 2848.87 5684.13 2848.87 5736.59V5760.81C2848.87 5814.29 2860.97 5862.21 2885.19 5904.59C2910.41 5945.96 2945.22 5978.24 2989.61 6001.45C3034 6024.66 3084.95 6036.26 3142.46 6036.26C3189.88 6036.26 3232.76 6028.19 3271.1 6012.04C3304.58 5998.3 3334.42 5978.72 3360.6 5953.29C3367.94 5946.15 3379.9 5946.29 3386.56 5954.08L3444.76 6022.17C3450.21 6028.54 3450.23 6037.95 3444.52 6044.08C3409.92 6081.16 3367.75 6109.83 3318.01 6130.09C3264.54 6152.29 3204.51 6163.39 3137.92 6163.39Z" fill="#F4C20D"/>
<path d="M2483.71 6147.51V5322.55H2621.21V6147.51H2483.71Z" fill="#F4C20D"/>
<path d="M2262.3 5339.97C2262.3 5330.1 2270.29 5322.11 2280.15 5322.11H2789.5C2799.36 5322.11 2807.35 5330.1 2807.35 5339.97V5442.02C2807.35 5451.88 2799.36 5459.88 2789.5 5459.88H2280.15C2270.29 5459.88 2262.3 5451.88 2262.3 5442.02V5339.97Z" fill="#F4C20D"/>
<path d="M1675.77 4473.29C1705.42 4466.01 1738.5 4465.97 1768.76 4468.56C1828 4473.62 1891.85 4490.21 1934.24 4504.26L1938.27 4505.61L1970.29 4516.44L1976.64 4549.5V4549.5C1976.67 4549.64 1976.73 4549.94 1976.83 4550.4C1977.04 4551.33 1977.39 4552.85 1977.89 4554.83C1978.9 4558.83 1980.48 4564.46 1982.66 4570.67C1987.58 4584.67 1993.31 4595.15 1997.83 4599.92C1997.85 4599.94 1997.86 4599.95 1997.87 4599.96C1997.97 4600.01 1998.26 4600.14 1998.82 4600.29C2000.54 4600.77 2004.46 4601.38 2011.37 4600.68C2025.88 4599.21 2045.16 4592.9 2066.85 4582.63C2087.84 4572.69 2107.69 4560.69 2122.58 4550.91C2129.93 4546.07 2135.86 4541.92 2139.89 4539.03C2141.89 4537.59 2143.41 4536.48 2144.37 4535.76C2144.86 4535.4 2145.2 4535.14 2145.4 4534.99C2145.5 4534.92 2145.56 4534.87 2145.58 4534.85L2145.59 4534.85L2166.63 4518.72L2192.64 4524.12L2180.85 4580.94C2192.56 4524.51 2192.67 4524.13 2192.7 4524.13C2192.71 4524.13 2192.74 4524.14 2192.77 4524.15C2192.81 4524.15 2192.86 4524.16 2192.91 4524.17C2193 4524.19 2193.11 4524.22 2193.23 4524.24C2193.46 4524.29 2193.74 4524.35 2194.05 4524.42C2194.67 4524.57 2195.45 4524.75 2196.37 4524.97C2198.22 4525.42 2200.66 4526.05 2203.64 4526.89C2209.58 4528.57 2217.69 4531.1 2227.51 4534.75C2247.14 4542.06 2273.77 4553.91 2303.78 4572.53C2364.08 4609.93 2437.36 4674.26 2494.64 4782.07C2509.68 4810.38 2498.92 4845.51 2470.62 4860.55C2442.31 4875.59 2407.18 4864.83 2392.14 4836.53C2345.6 4748.93 2287.61 4699.08 2242.6 4671.16C2221.97 4658.36 2203.92 4650.09 2190.76 4644.96C2189.33 4645.91 2187.85 4646.9 2186.32 4647.9C2168.74 4659.45 2144.01 4674.52 2116.52 4687.53C2089.73 4700.22 2056.63 4712.75 2023.07 4716.15C1989.07 4719.6 1946.17 4714.13 1913.59 4679.77C1892.01 4657 1879.72 4627.84 1873.15 4609.1C1872.85 4608.25 1872.56 4607.41 1872.28 4606.58C1838.11 4596.75 1796.23 4587.39 1758.88 4584.2C1734.18 4582.09 1715.45 4583.06 1703.44 4586.01C1700.41 4586.75 1698.39 4587.46 1697.13 4587.99C1672.07 4645.17 1661.98 4697.35 1660.24 4713.2L1657.32 4739.9L1447.52 4881.86L1320.22 4775.45C1289.48 4791.51 1253.9 4813.26 1224.31 4837.64C1203.93 4854.42 1188.65 4870.62 1179.37 4885.04C1170.09 4899.48 1169.51 4907.76 1169.99 4911.47C1178.99 4979.94 1217.96 5009.91 1225.21 5013.59L1276.34 5039.54L1168.1 5259.27L993.33 5316.03C986.112 5342.34 979.368 5374.66 976.975 5405.27C975.32 5426.44 975.957 5444.33 978.655 5457.78C981.433 5471.64 985.297 5475.56 985.562 5475.8C1001.73 5490.39 1027.04 5501.9 1056.43 5509.54C1085.19 5517.02 1112.35 5519.38 1126.87 5519.38H1166.38L1263.96 5767.01L1196.23 5870.14C1223.1 5909.59 1258.58 5955.54 1294.36 5990.63C1317.49 6013.32 1337.54 6028.26 1352.79 6035.33C1358.99 6038.21 1362.61 6039.06 1364.38 6039.26C1393.25 6020.89 1399.08 6007.63 1399.98 6004.95C1400.87 6002.3 1398.68 6005.96 1403.74 6013.15L1479.7 5929.2L1703.83 6055.58V6190.61C1739.91 6198.78 1782.65 6206.26 1822.06 6208.99C1850.49 6210.96 1874.26 6210.23 1891.47 6206.92C1902.96 6204.71 1907.64 6202.14 1908.91 6201.38C1917.71 6187.62 1921.6 6167.13 1919.34 6141.15C1917.04 6114.75 1908.95 6090.13 1902.98 6077.15L1877.27 6021.23L2154.19 5913.13L2294.09 6031.45H2535.23C2535.23 6031.47 2535.23 6032.57 2535.23 6089.48C2535.23 6146.19 2535.23 6147.49 2535.23 6147.52H2251.58L2132.01 6046.38L2027.91 6087.02C2031.11 6100.84 2033.63 6115.71 2034.97 6131.09C2038.51 6171.84 2034.36 6223.96 2003.49 6268.74C1980.38 6302.24 1942.71 6315.26 1913.37 6320.9C1882.21 6326.89 1847.24 6327.07 1814.04 6324.78C1747.27 6320.15 1675.79 6304.54 1630.05 6291.65L1587.76 6279.72V6123.38L1495.83 6071.54C1480.4 6096.07 1456.46 6118.61 1424.28 6138.7C1381.98 6165.13 1336.76 6155.85 1303.93 6140.62C1271.16 6125.41 1240.04 6099.93 1213.08 6073.49C1158.53 6019.98 1107.82 5949.26 1077.6 5900.68L1057.99 5869.18L1133.92 5753.58L1086.35 5632.89C1068.31 5630.79 1048.02 5627.28 1027.22 5621.87C989.096 5611.96 943.536 5594.21 907.812 5561.98C882.128 5538.8 870.316 5507.85 864.852 5480.6C859.307 5452.94 859.133 5423.45 861.262 5396.22C865.52 5341.75 879.837 5286.4 891.76 5251.43L901.135 5223.94L1085.64 5164.02L1126.32 5081.44C1094.84 5048.75 1064.21 4997.37 1054.92 4926.59C1049.64 4886.41 1063.59 4850.49 1081.76 4822.26C1099.92 4794.01 1125.01 4769.06 1150.52 4748.05C1201.58 4705.99 1263.42 4672.37 1305.12 4653.85L1338.16 4639.18L1454.88 4736.74L1549.28 4672.86C1555.86 4639.36 1569.35 4589.3 1592.83 4536.86L1593.67 4535.04C1611.53 4497.09 1646.86 4480.38 1675.77 4473.29Z" fill="#F4C20D"/>
</g>
<defs>
<clipPath id="clip0_4_31">
<rect width="12721" height="10925" fill="white"/>
</clipPath>
</defs>
</svg>
