<svg width="12721" height="10925" viewBox="0 0 12721 10925" fill="none" xmlns="http://www.w3.org/2000/svg">
<g clip-path="url(#clip0_384_304)">
<rect width="12721" height="10925" fill="white"/>
<rect y="-1" width="12802" height="10925" fill="white"/>
<rect x="64" y="63" width="12802" height="10925" fill="#28A745"/>
<path d="M8480.11 7862.89V5225.34H8919.77V7862.89H8480.11Z" fill="#662D91"/>
<path d="M7772.09 5281.03C7772.09 5249.5 7797.65 5223.94 7829.19 5223.94H9457.9C9489.44 5223.94 9515 5249.5 9515 5281.03V5607.32C9515 5638.85 9489.44 5664.41 9457.9 5664.41H7829.19C7797.65 5664.41 7772.09 5638.85 7772.09 5607.32V5281.03Z" fill="#662D91"/>
<path d="M5896.58 2510.11C5991.38 2486.84 6097.14 2486.72 6193.91 2494.98C6383.35 2511.16 6587.52 2564.22 6723.07 2609.12L6735.97 2613.44L6838.36 2648.07L6858.66 2753.77V2753.78C6858.75 2754.21 6858.95 2755.19 6859.27 2756.66C6859.92 2759.61 6861.03 2764.47 6862.64 2770.79C6865.89 2783.61 6870.94 2801.58 6877.91 2821.44C6893.63 2866.22 6911.95 2899.71 6926.41 2914.96C6926.46 2915.02 6926.51 2915.06 6926.54 2915.1C6926.86 2915.26 6927.78 2915.67 6929.56 2916.17C6935.08 2917.7 6947.63 2919.64 6969.71 2917.4C7016.11 2912.7 7077.76 2892.54 7147.12 2859.7C7214.25 2827.92 7277.72 2789.53 7325.3 2758.26C7348.81 2742.81 7367.8 2729.54 7380.66 2720.31C7387.07 2715.7 7391.92 2712.13 7395.01 2709.83C7396.55 2708.68 7397.65 2707.86 7398.28 2707.38C7398.6 2707.15 7398.8 2707 7398.88 2706.94L7398.9 2706.92L7466.17 2655.36L7549.36 2672.62L7511.64 2854.29C7549.09 2673.88 7549.45 2672.65 7549.54 2672.66C7549.58 2672.67 7549.68 2672.69 7549.75 2672.71C7549.89 2672.73 7550.04 2672.76 7550.2 2672.79C7550.51 2672.86 7550.85 2672.94 7551.22 2673.02C7551.97 2673.18 7552.85 2673.37 7553.85 2673.6C7555.84 2674.05 7558.33 2674.62 7561.29 2675.34C7567.2 2676.78 7575.01 2678.79 7584.52 2681.48C7603.53 2686.84 7629.45 2694.93 7660.86 2706.62C7723.63 2729.98 7808.77 2767.87 7904.73 2827.38C8097.57 2946.98 8331.88 3152.64 8515.05 3497.35C8563.13 3587.84 8528.74 3700.17 8438.23 3748.25C8347.72 3796.32 8235.38 3761.94 8187.29 3671.45C8038.48 3391.39 7853.03 3231.99 7709.1 3142.73C7643.15 3101.82 7585.41 3075.38 7543.33 3058.96C7538.76 3062.02 7534.02 3065.16 7529.14 3068.37C7472.93 3105.31 7393.84 3153.47 7305.95 3195.09C7220.28 3235.64 7114.42 3275.72 7007.13 3286.59C6898.4 3297.61 6761.21 3280.11 6657.05 3170.25C6588.04 3097.45 6548.74 3004.23 6527.71 2944.32C6526.76 2941.62 6525.85 2938.92 6524.94 2936.27C6415.67 2904.85 6281.77 2874.92 6162.32 2864.72C6083.35 2857.98 6023.47 2861.06 5985.03 2870.5C5975.35 2872.87 5968.91 2875.12 5964.87 2876.81C5884.75 3059.65 5852.46 3226.46 5846.91 3277.15L5837.56 3362.51L5166.7 3816.38L4759.62 3476.18C4661.34 3527.52 4547.58 3597.05 4452.94 3674.99C4387.77 3728.66 4338.92 3780.43 4309.25 3826.56C4279.55 3872.72 4277.7 3899.18 4279.26 3911.06C4308.02 4129.97 4432.65 4225.79 4455.81 4237.54L4619.33 4320.51L4273.2 5023.03L3714.35 5204.51C3691.26 5288.61 3669.7 5391.94 3662.05 5489.81C3656.76 5557.51 3658.79 5614.69 3667.42 5657.71C3676.3 5702.02 3688.66 5714.55 3689.51 5715.32C3741.21 5761.95 3822.15 5798.76 3916.12 5823.19C4008.1 5847.11 4094.92 5854.64 4141.36 5854.64H4267.69L4579.75 6646.35L4363.14 6976.08C4449.08 7102.22 4562.53 7249.12 4676.93 7361.32C4750.9 7433.87 4815.01 7481.62 4863.77 7504.24C4883.62 7513.46 4895.17 7516.16 4900.84 7516.79C4993.15 7458.06 5011.8 7415.68 5014.69 7407.1C5017.54 7398.64 5010.52 7410.34 5026.7 7433.33L5269.61 7164.93L5986.29 7568.99V8000.68C6101.66 8026.81 6238.33 8050.72 6364.36 8059.45C6455.27 8065.74 6531.26 8063.41 6586.31 8052.84C6623.03 8045.78 6638.01 8037.56 6642.06 8035.12C6670.2 7991.14 6682.65 7925.62 6675.42 7842.56C6668.08 7758.15 6642.21 7679.45 6623.13 7637.94L6540.91 7459.15L7426.41 7113.53L7873.74 7491.83H8644.84C8644.84 7491.9 8644.84 7495.42 8644.84 7677.38C8644.84 7858.67 8644.84 7862.82 8644.84 7862.92H7737.83L7355.48 7539.57L7022.6 7669.49C7032.82 7713.68 7040.89 7761.22 7045.17 7810.4C7056.5 7940.68 7043.23 8107.33 6944.5 8250.48C6870.62 8357.58 6750.17 8399.22 6656.35 8417.25C6556.7 8436.4 6444.86 8436.99 6338.72 8429.64C6125.19 8414.86 5896.62 8364.95 5750.37 8323.72L5615.15 8285.6V7785.76L5321.18 7620.01C5271.83 7698.44 5195.28 7770.49 5092.4 7834.74C4957.13 7919.21 4812.53 7889.56 4707.55 7840.86C4602.76 7792.24 4503.24 7710.77 4417.04 7626.23C4242.61 7455.16 4080.46 7229.05 3983.8 7073.75L3921.12 6973.02L4163.9 6603.43L4011.81 6217.55C3954.12 6210.85 3889.22 6199.63 3822.71 6182.33C3700.81 6150.64 3555.12 6093.89 3440.89 5990.84C3358.76 5916.75 3320.99 5817.79 3303.52 5730.66C3285.78 5642.22 3285.23 5547.95 3292.03 5460.9C3305.65 5286.74 3351.43 5109.75 3389.56 4997.98L3419.54 4910.09L4009.51 4718.49L4139.59 4454.48C4038.93 4349.97 3941.01 4185.69 3911.28 3959.39C3894.4 3830.94 3939.03 3716.09 3997.1 3625.82C4055.19 3535.52 4135.41 3455.74 4216.98 3388.56C4380.25 3254.1 4578 3146.6 4711.36 3087.39L4816.99 3040.48L5190.23 3352.41L5492.1 3148.17C5513.14 3041.06 5556.27 2881.01 5631.36 2713.36L5634.04 2707.53C5691.15 2586.19 5804.13 2532.79 5896.58 2510.11Z" fill="#662D91"/>
</g>
<defs>
<clipPath id="clip0_384_304">
<rect width="12721" height="10925" fill="white"/>
</clipPath>
</defs>
</svg>
